<svg width="25" height="555" viewBox="0 0 25 555" fill="none" xmlns="http://www.w3.org/2000/svg">
<path d="M12.5 0.45275L0.952994 11.9998L12.5 23.5468L24.047 11.9998L12.5 0.45275ZM12.5 533.333C6.60894 533.333 1.83331 538.109 1.83331 544C1.83331 549.891 6.60894 554.666 12.5 554.666C18.391 554.666 23.1666 549.891 23.1666 544C23.1666 538.109 18.391 533.333 12.5 533.333ZM12.5 11.9998L10.5 11.9998L10.5 16.0301L12.5 16.0301L14.5 16.0301L14.5 11.9998L12.5 11.9998ZM12.5 24.0907L10.5 24.0907L10.5 32.1513L12.5 32.1513L14.5 32.1513L14.5 24.0907L12.5 24.0907ZM12.5 40.2119L10.5 40.2119L10.5 48.2725L12.5 48.2725L14.5 48.2725L14.5 40.2119L12.5 40.2119ZM12.5 56.3331L10.5 56.3331L10.5 64.3937L12.5 64.3937L14.5 64.3937L14.5 56.3331L12.5 56.3331ZM12.5 72.4543L10.5 72.4543L10.5 80.5149L12.5 80.5149L14.5 80.5149L14.5 72.4543L12.5 72.4543ZM12.5 88.5755L10.5 88.5755L10.5 96.6361L12.5 96.6361L14.5 96.6361L14.5 88.5755L12.5 88.5755ZM12.5 104.697L10.5 104.697L10.5 112.757L12.5 112.757L14.5 112.757L14.5 104.697L12.5 104.697ZM12.5 120.818L10.5 120.818L10.5 128.879L12.5 128.879L14.5 128.879L14.5 120.818L12.5 120.818ZM12.5 136.939L10.5 136.939L10.5 145L12.5 145L14.5 145L14.5 136.939L12.5 136.939ZM12.5 153.06L10.5 153.06L10.5 161.121L12.5 161.121L14.5 161.121L14.5 153.06L12.5 153.06ZM12.5 169.182L10.5 169.182L10.5 177.242L12.5 177.242L14.5 177.242L14.5 169.182L12.5 169.182ZM12.5 185.303L10.5 185.303L10.5 193.363L12.5 193.363L14.5 193.363L14.5 185.303L12.5 185.303ZM12.5 201.424L10.5 201.424L10.5 209.485L12.5 209.485L14.5 209.485L14.5 201.424L12.5 201.424ZM12.5 217.545L10.5 217.545L10.5 225.606L12.5 225.606L14.5 225.606L14.5 217.545L12.5 217.545ZM12.5 233.666L10.5 233.666L10.5 241.727L12.5 241.727L14.5 241.727L14.5 233.666L12.5 233.666ZM12.5 249.788L10.5 249.788L10.5 257.848L12.5 257.848L14.5 257.848L14.5 249.788L12.5 249.788ZM12.5 265.909L10.5 265.909L10.5 273.969L12.5 273.969L14.5 273.969L14.5 265.909L12.5 265.909ZM12.5 282.03L10.5 282.03L10.5 290.091L12.5 290.091L14.5 290.091L14.5 282.03L12.5 282.03ZM12.5 298.151L10.5 298.151L10.5 306.212L12.5 306.212L14.5 306.212L14.5 298.151L12.5 298.151ZM12.5 314.273L10.5 314.273L10.5 322.333L12.5 322.333L14.5 322.333L14.5 314.273L12.5 314.273ZM12.5 330.394L10.5 330.394L10.5 338.454L12.5 338.454L14.5 338.454L14.5 330.394L12.5 330.394ZM12.5 346.515L10.5 346.515L10.5 354.576L12.5 354.576L14.5 354.576L14.5 346.515L12.5 346.515ZM12.5 362.636L10.5 362.636L10.5 370.697L12.5 370.697L14.5 370.697L14.5 362.636L12.5 362.636ZM12.5 378.757L10.5 378.757L10.5 386.818L12.5 386.818L14.5 386.818L14.5 378.757L12.5 378.757ZM12.5 394.879L10.5 394.879L10.5 402.939L12.5 402.939L14.5 402.939L14.5 394.879L12.5 394.879ZM12.5 411L10.5 411L10.5 419.06L12.5 419.06L14.5 419.06L14.5 411L12.5 411ZM12.5 427.121L10.5 427.121L10.5 435.182L12.5 435.182L14.5 435.182L14.5 427.121L12.5 427.121ZM12.5 443.242L10.5 443.242L10.5 451.303L12.5 451.303L14.5 451.303L14.5 443.242L12.5 443.242ZM12.5 459.363L10.5 459.363L10.5 467.424L12.5 467.424L14.5 467.424L14.5 459.363L12.5 459.363ZM12.5 475.485L10.5 475.485L10.5 483.545L12.5 483.545L14.5 483.545L14.5 475.485L12.5 475.485ZM12.5 491.606L10.5 491.606L10.5 499.667L12.5 499.667L14.5 499.667L14.5 491.606L12.5 491.606ZM12.5 507.727L10.5 507.727L10.5 515.788L12.5 515.788L14.5 515.788L14.5 507.727L12.5 507.727ZM12.5 523.848L10.5 523.848L10.5 531.909L12.5 531.909L14.5 531.909L14.5 523.848L12.5 523.848ZM12.5 539.97L10.5 539.97L10.5 544L12.5 544L14.5 544L14.5 539.97L12.5 539.97Z" fill="url(#paint0_linear_37_504)"/>
<defs>
<linearGradient id="paint0_linear_37_504" x1="12" y1="11.9998" x2="12.5" y2="544" gradientUnits="userSpaceOnUse">
<stop stop-color="#3333FF"/>
<stop offset="1" stop-color="#03045E"/>
</linearGradient>
</defs>
</svg>
