<svg width="225" height="12" viewBox="0 0 225 12" fill="none" xmlns="http://www.w3.org/2000/svg">
<path d="M0.166667 5.99976C0.166667 8.94527 2.55448 11.3331 5.5 11.3331C8.44552 11.3331 10.8333 8.94527 10.8333 5.99976C10.8333 3.05424 8.44552 0.666422 5.5 0.666422C2.55448 0.666422 0.166667 3.05424 0.166667 5.99976ZM214.167 5.99976C214.167 8.94527 216.554 11.3331 219.5 11.3331C222.446 11.3331 224.833 8.94527 224.833 5.99976C224.833 3.05424 222.446 0.666422 219.5 0.666422C216.554 0.666422 214.167 3.05424 214.167 5.99976ZM5.5 5.99976V6.99976H9.61539V5.99976V4.99976H5.5V5.99976ZM17.8462 5.99976V6.99976H26.0769V5.99976V4.99976H17.8462V5.99976ZM34.3077 5.99976V6.99976H42.5385V5.99976V4.99976H34.3077V5.99976ZM50.7692 5.99976V6.99976H59V5.99976V4.99976H50.7692V5.99976ZM67.2308 5.99976V6.99976H75.4615V5.99976V4.99976H67.2308V5.99976ZM83.6923 5.99976V6.99976H91.9231V5.99976V4.99976H83.6923V5.99976ZM100.154 5.99976V6.99976H108.385V5.99976V4.99976H100.154V5.99976ZM116.615 5.99976V6.99976H124.846V5.99976V4.99976H116.615V5.99976ZM133.077 5.99976V6.99976H141.308V5.99976V4.99976H133.077V5.99976ZM149.538 5.99976V6.99976H157.769V5.99976V4.99976H149.538V5.99976ZM166 5.99976V6.99976H174.231V5.99976V4.99976H166V5.99976ZM182.462 5.99976V6.99976H190.692V5.99976V4.99976H182.462V5.99976ZM198.923 5.99976V6.99976H207.154V5.99976V4.99976H198.923V5.99976ZM215.385 5.99976V6.99976H219.5V5.99976V4.99976H215.385V5.99976Z" fill="black"/>
</svg>
